{
  "asset": {
    "version": "2.0",
    "generator": "THREE.JS GLTFExporter"
  },
  "scenes": [
    {
      "nodes": [
        33
      ],
      "name": "AuxScene"
    }
  ],
  "scene": 0,
  "nodes": [
    {},
    {
      "matrix": [
        1,
        0,
        0,
        0,
        0,
        2.220446049250313e-16,
        -1,
        0,
        0,
        1,
        2.220446049250313e-16,
        0,
        0,
        0,
        -4,
        1
      ],
      "children": [
        0
      ]
    },
    {},
    {
      "matrix": [
        -1,
        0,
        0,
        0,
        0,
        1,
        0,
        0,
        0,
        0,
        1,
        0,
        0,
        0,
        0,
        1
      ],
      "children": [
        2
      ]
    },
    {
      "matrix": [
        0.1,
        0,
        0,
        0,
        0,
        0.1,
        0,
        0,
        0,
        0,
        0.1,
        0,
        0,
        5,
        0,
        1
      ]
    },
    {
      "matrix": [
        0.1,
        0,
        0,
        0,
        0,
        0.1,
        0,
        0,
        0,
        0,
        0.1,
        0,
        0,
        5,
        0,
        1
      ]
    },
    {
      "matrix": [
        0.1,
        0,
        0,
        0,
        0,
        0.1,
        0,
        0,
        0,
        0,
        0.1,
        0,
        0,
        5,
        0,
        1
      ]
    },
    {
      "matrix": [
        0.1,
        0,
        0,
        0,
        0,
        0.1,
        0,
        0,
        0,
        0,
        0.1,
        0,
        0,
        5,
        0,
        1
      ]
    },
    {},
    {},
    {
      "matrix": [
        0.6996310043886039,
        7.531236269005757e-7,
        -0.714504344071907,
        0,
        -0.0000012777770590309956,
        0.9999999999991642,
        -1.971280111355778e-7,
        0,
        0.7145043440711614,
        0.000001050894127856984,
        0.6996310043889815,
        0,
        -2.9992613388533406,
        0.5999985716380686,
        -2.991172092094396,
        1
      ],
      "children": [
        9
      ]
    },
    {},
    {
      "matrix": [
        0.008213963045040406,
        -0.9995445000468728,
        0.029040028187680117,
        0,
        0.9622497052745065,
        1.1267206367904237e-7,
        -0.2721681551892362,
        0,
        0.272044179335305,
        0.030179337733519704,
        0.961811401504342,
        0,
        -8.20228799033297,
        2.5965324148722715,
        -31.586840935710942,
        1
      ],
      "children": [
        11
      ]
    },
    {},
    {
      "matrix": [
        0.1399223703374376,
        0.9883944708329466,
        -0.05914474030725568,
        0,
        0.9770894257142932,
        -0.12815409449402382,
        0.16991992885394522,
        0,
        0.16036827752540655,
        -0.08156529955365024,
        -0.9836814105553984,
        0,
        3.897294466443708,
        2.599998024660639,
        23.794605167320103,
        1
      ],
      "children": [
        13
      ]
    },
    {},
    {},
    {},
    {
      "children": [
        17
      ]
    },
    {},
    {
      "children": [
        19
      ]
    },
    {
      "matrix": [
        1,
        0,
        0,
        0,
        0,
        1,
        0,
        0,
        0,
        0,
        1,
        0,
        0,
        0,
        -1,
        1
      ],
      "children": [
        16,
        18,
        20
      ]
    },
    {},
    {
      "matrix": [
        1,
        0,
        0,
        0,
        0,
        1,
        0,
        0,
        0,
        0,
        1,
        0,
        0,
        1.6,
        0,
        1
      ],
      "children": [
        21,
        22
      ]
    },
    {
      "matrix": [
        1,
        0,
        0,
        0,
        0,
        1,
        0,
        0,
        0,
        0,
        1,
        0,
        0,
        1.6,
        0,
        1
      ],
      "children": [
        23
      ]
    },
    {},
    {
      "children": [
        25
      ]
    },
    {},
    {
      "matrix": [
        1,
        0,
        0,
        0,
        0,
        1,
        0,
        0,
        0,
        0,
        1,
        0,
        -0.5,
        1,
        1,
        1
      ],
      "children": [
        27
      ]
    },
    {
      "matrix": [
        0.7071067811865477,
        1.3877787807814457e-17,
        -0.7071067811865475,
        0,
        -0.23570226039551578,
        0.9428090415820634,
        -0.23570226039551584,
        0,
        0.6666666666666665,
        0.3333333333333333,
        0.6666666666666667,
        0,
        20,
        10,
        20,
        1
      ]
    },
    {
      "children": [
        29
      ]
    },
    {
      "mesh": 0
    },
    {
      "children": [
        31
      ]
    },
    {
      "children": [
        1,
        3,
        4,
        5,
        6,
        7,
        8,
        10,
        12,
        14,
        15,
        24,
        26,
        28,
        30,
        32
      ]
    }
  ],
  "meshes": [
    {
      "primitives": [
        {
          "mode": 1,
          "attributes": {
            "POSITION": 0,
            "COLOR_0": 1
          },
          "material": 0
        }
      ]
    }
  ],
  "materials": [
    {
      "pbrMetallicRoughness": {
        "metallicFactor": 0.5,
        "roughnessFactor": 0.5
      }
    }
  ],
  "accessors": [
    {
      "bufferView": 0,
      "componentType": 5126,
      "count": 244,
      "max": [
        15,
        0,
        15
      ],
      "min": [
        -15,
        0,
        -15
      ],
      "type": "VEC3"
    },
    {
      "bufferView": 1,
      "componentType": 5126,
      "count": 244,
      "max": [
        0.3333333432674408,
        0.3333333432674408,
        0.3333333432674408
      ],
      "min": [
        0.16078431904315948,
        0.16078431904315948,
        0.16078431904315948
      ],
      "type": "VEC3"
    }
  ],
  "bufferViews": [
    {
      "buffer": 0,
      "byteOffset": 0,
      "byteLength": 2928,
      "byteStride": 12,
      "target": 34962
    },
    {
      "buffer": 0,
      "byteOffset": 2928,
      "byteLength": 2928,
      "byteStride": 12,
      "target": 34962
    }
  ],
  "buffers": [
    {
      "byteLength": 5856,
      "uri": "data:application/octet-stream;base64,"
    }
  ]
}